<svg width="152" height="95" viewBox="0 0 152 95" fill="none" xmlns="http://www.w3.org/2000/svg">
<ellipse cx="32.9573" cy="39.2249" rx="28" ry="21" transform="rotate(-14.7143 32.9573 39.2249)" fill="#1A202C"/>
<ellipse cx="72.8849" cy="61.1952" rx="28" ry="21" transform="rotate(2.48689 72.8849 61.1952)" fill="#1A202C"/>
<path d="M91.1419 63.4859C90.7761 56.143 90.7925 50.4851 93.3891 45.8734C95.9858 41.2617 100.407 38.3486 108.026 33.5041C122.304 27.564 133.82 30.8192 143.829 41.5925C143.692 55.4572 138.437 66.3419 124.159 72.2819C109.582 76.9388 105.352 76.1578 91.1419 63.4859Z" fill="#1A202C"/>
<ellipse cx="20.8663" cy="35.4761" rx="5.5" ry="4" transform="rotate(-11.7313 20.8663 35.4761)" fill="#FFFDFD"/>
<path d="M29.1819 49.4353C29.1819 49.4353 21.3617 64.5173 3.44545 56.937" stroke="white" stroke-width="2" stroke-linecap="round"/>
<ellipse cx="18.6482" cy="36.6527" rx="1.5" ry="2" transform="rotate(52.495 18.6482 36.6527)" fill="#1A202C"/>
<line x1="50.8406" y1="72.1373" x2="48.1373" y2="90.1594" stroke="#1A202C" stroke-width="2" stroke-linecap="round"/>
<line x1="48" y1="91" x2="40" y2="91" stroke="#1A202C" stroke-width="2" stroke-linecap="round"/>
<line x1="71.8406" y1="74.9327" x2="69.1373" y2="92.9548" stroke="#1A202C" stroke-width="2" stroke-linecap="round"/>
<line x1="69" y1="93.7954" x2="61" y2="93.7954" stroke="#1A202C" stroke-width="2" stroke-linecap="round"/>
<line x1="85.7793" y1="70.7735" x2="87.0278" y2="88.9544" stroke="#1A202C" stroke-width="2" stroke-linecap="round"/>
<line x1="87.0752" y1="89.8048" x2="79.2636" y2="91.5308" stroke="#1A202C" stroke-width="2" stroke-linecap="round"/>
<line x1="100.693" y1="68.8603" x2="103.082" y2="86.9267" stroke="#1A202C" stroke-width="2" stroke-linecap="round"/>
<line x1="103.183" y1="87.7725" x2="95.4951" y2="89.9861" stroke="#1A202C" stroke-width="2" stroke-linecap="round"/>
<line x1="114.738" y1="70.2929" x2="115.242" y2="88.5097" stroke="#1A202C" stroke-width="2" stroke-linecap="round"/>
<line x1="115.254" y1="89.3613" x2="107.378" y2="90.7663" stroke="#1A202C" stroke-width="2" stroke-linecap="round"/>
<line x1="130.606" y1="65.4688" x2="133.355" y2="83.484" stroke="#1A202C" stroke-width="2" stroke-linecap="round"/>
<line x1="133.472" y1="84.3275" x2="125.83" y2="86.6941" stroke="#1A202C" stroke-width="2" stroke-linecap="round"/>
<path d="M12.4264 7.35643C22.9889 8.78974 24.9099 20.3626 24.9099 20.3626" stroke="#1A202C" stroke-width="2"/>
<circle cx="12.6328" cy="7.81183" r="3.5" transform="rotate(-24.3853 12.6328 7.81183)" fill="#1A202C"/>
<path d="M38.5 3C47.5285 8.66641 44.5 20 44.5 20" stroke="#1A202C" stroke-width="2"/>
<circle cx="38.5" cy="3.5" r="3.5" fill="#1A202C"/>
<ellipse cx="19.1175" cy="35.9148" rx="1" ry="0.5" transform="rotate(-28.3417 19.1175 35.9148)" fill="#FFFBFB"/>
</svg>
