<svg width="512" height="512" viewBox="0 0 512 512" fill="none" xmlns="http://www.w3.org/2000/svg">
<circle cx="256" cy="256" r="256" fill="#FF9720"/>
<path d="M56.1953 351L139.295 141H182.795L265.295 351H213.695L173.795 244.5C172.395 240.3 170.795 235.8 168.995 231C167.395 226.2 165.795 221.2 164.195 216C162.595 210.8 161.095 205.8 159.695 201C158.295 196.2 157.095 191.7 156.095 187.5L164.795 187.2C163.595 192.2 162.295 197.1 160.895 201.9C159.495 206.7 157.995 211.5 156.395 216.3C154.795 221.1 153.095 225.9 151.295 230.7C149.695 235.3 147.995 240.1 146.195 245.1L106.595 351H56.1953ZM95.7953 310.8L111.995 271.8H207.995L224.195 310.8H95.7953ZM361.375 354C340.575 354 322.975 350.4 308.575 343.2C294.375 335.8 282.175 325.4 271.975 312L303.175 276.9C312.975 290.3 322.875 299.3 332.875 303.9C342.875 308.5 353.175 310.8 363.775 310.8C369.175 310.8 373.975 310.1 378.175 308.7C382.575 307.3 385.975 305.3 388.375 302.7C390.975 299.9 392.275 296.6 392.275 292.8C392.275 289.8 391.475 287.1 389.875 284.7C388.475 282.3 386.475 280.2 383.875 278.4C381.275 276.6 378.275 275 374.875 273.6C371.475 272 367.675 270.7 363.475 269.7C359.475 268.7 355.375 267.8 351.175 267C339.575 264.6 329.475 261.5 320.875 257.7C312.475 253.7 305.375 249 299.575 243.6C293.975 238 289.775 231.7 286.975 224.7C284.175 217.5 282.775 209.4 282.775 200.4C282.775 187.6 286.375 176.4 293.575 166.8C300.975 157.2 310.675 149.7 322.675 144.3C334.675 138.9 347.675 136.2 361.675 136.2C382.075 136.2 398.475 139.5 410.875 146.1C423.475 152.5 433.475 161.4 440.875 172.8L409.075 203.7C402.875 195.7 395.775 189.7 387.775 185.7C379.975 181.7 371.775 179.7 363.175 179.7C357.375 179.7 352.275 180.4 347.875 181.8C343.475 183.2 340.075 185.3 337.675 188.1C335.475 190.7 334.375 193.9 334.375 197.7C334.375 200.9 335.275 203.8 337.075 206.4C339.075 208.8 341.775 210.9 345.175 212.7C348.575 214.5 352.475 216.1 356.875 217.5C361.275 218.7 365.875 219.7 370.675 220.5C381.675 222.7 391.575 225.6 400.375 229.2C409.375 232.8 417.075 237.3 423.475 242.7C429.875 247.9 434.775 254.1 438.175 261.3C441.775 268.3 443.575 276.4 443.575 285.6C443.575 300 440.075 312.3 433.075 322.5C426.075 332.7 416.375 340.5 403.975 345.9C391.575 351.3 377.375 354 361.375 354Z" fill="#FFFDFD"/>
</svg>
