<svg width="96" height="100" viewBox="0 0 96 100" fill="none" xmlns="http://www.w3.org/2000/svg">
<g filter="url(#filter0_d_111_2)">
<path d="M80 12H76V8C76 5.8 74.2 4 72 4C69.8 4 68 5.8 68 8V12H28V8C28 5.8 26.2 4 24 4C21.8 4 20 5.8 20 8V12H16C11.6 12 8 15.6 8 20V84C8 88.4 11.6 92 16 92H80C84.4 92 88 88.4 88 84V20C88 15.6 84.4 12 80 12ZM76 84H20C17.8 84 16 82.2 16 80V32H80V80C80 82.2 78.2 84 76 84Z" fill="black"/>
</g>
<defs>
<filter id="filter0_d_111_2" x="-4" y="0" width="104" height="104" filterUnits="userSpaceOnUse" color-interpolation-filters="sRGB">
<feFlood flood-opacity="0" result="BackgroundImageFix"/>
<feColorMatrix in="SourceAlpha" type="matrix" values="0 0 0 0 0 0 0 0 0 0 0 0 0 0 0 0 0 0 127 0" result="hardAlpha"/>
<feOffset dy="4"/>
<feGaussianBlur stdDeviation="2"/>
<feComposite in2="hardAlpha" operator="out"/>
<feColorMatrix type="matrix" values="0 0 0 0 0 0 0 0 0 0 0 0 0 0 0 0 0 0 0.25 0"/>
<feBlend mode="normal" in2="BackgroundImageFix" result="effect1_dropShadow_111_2"/>
<feBlend mode="normal" in="SourceGraphic" in2="effect1_dropShadow_111_2" result="shape"/>
</filter>
</defs>
</svg>
