<svg width="514" height="514" viewBox="0 0 514 514" fill="none" xmlns="http://www.w3.org/2000/svg">
<rect width="514" height="514" rx="50" fill="#1A202C"/>
<path d="M169.974 159.2C187.521 159.2 202.827 162.653 215.894 169.56C228.961 176.467 239.041 186.733 246.134 200.36C253.414 213.8 257.054 230.133 257.054 249.36V358H220.654V307.6H118.734V358H82.8939V249.36C82.8939 230.133 86.4406 213.8 93.5339 200.36C100.814 186.733 110.987 176.467 124.054 169.56C137.121 162.653 152.427 159.2 169.974 159.2ZM220.654 277.08V246C220.654 227.893 216.174 214.267 207.214 205.12C198.254 195.787 185.747 191.12 169.694 191.12C153.641 191.12 141.134 195.787 132.174 205.12C123.214 214.267 118.734 227.893 118.734 246V277.08H220.654ZM368.732 360.8C353.612 360.8 338.959 358.653 324.772 354.36C310.772 350.067 299.666 344.373 291.452 337.28L304.052 309C312.079 315.347 321.879 320.573 333.452 324.68C345.212 328.6 356.972 330.56 368.732 330.56C383.292 330.56 394.119 328.227 401.212 323.56C408.492 318.893 412.132 312.733 412.132 305.08C412.132 299.48 410.079 294.907 405.972 291.36C402.052 287.627 397.012 284.733 390.852 282.68C384.692 280.627 376.292 278.293 365.652 275.68C350.719 272.133 338.586 268.587 329.252 265.04C320.106 261.493 312.172 255.987 305.452 248.52C298.919 240.867 295.652 230.6 295.652 217.72C295.652 206.893 298.546 197.093 304.332 188.32C310.306 179.36 319.172 172.267 330.932 167.04C342.879 161.813 357.439 159.2 374.612 159.2C386.559 159.2 398.319 160.693 409.892 163.68C421.466 166.667 431.452 170.96 439.852 176.56L428.372 204.84C419.786 199.8 410.826 195.973 401.492 193.36C392.159 190.747 383.106 189.44 374.332 189.44C359.959 189.44 349.226 191.867 342.132 196.72C335.226 201.573 331.772 208.013 331.772 216.04C331.772 221.64 333.732 226.213 337.652 229.76C341.759 233.307 346.892 236.107 353.052 238.16C359.212 240.213 367.612 242.547 378.252 245.16C392.812 248.52 404.759 252.067 414.092 255.8C423.426 259.347 431.359 264.853 437.892 272.32C444.612 279.787 447.972 289.867 447.972 302.56C447.972 313.387 444.986 323.187 439.012 331.96C433.226 340.733 424.359 347.733 412.412 352.96C400.466 358.187 385.906 360.8 368.732 360.8Z" fill="#FFFDFD"/>
</svg>
