<?xml version="1.0" standalone="no"?>
<!DOCTYPE svg PUBLIC "-//W3C//DTD SVG 20010904//EN"
 "http://www.w3.org/TR/2001/REC-SVG-20010904/DTD/svg10.dtd">
<svg version="1.0" xmlns="http://www.w3.org/2000/svg"
 width="192.000000pt" height="192.000000pt" viewBox="0 0 192.000000 192.000000"
 preserveAspectRatio="xMidYMid meet">
<metadata>
Created by potrace 1.14, written by Peter Selinger 2001-2017
</metadata>
<g transform="translate(0.000000,192.000000) scale(0.100000,-0.100000)"
fill="#000000" stroke="none">
<path d="M0 960 l0 -960 960 0 960 0 0 960 0 960 -960 0 -960 0 0 -960z m785
336 c53 -22 110 -79 143 -141 27 -50 27 -50 30 -312 l3 -263 -70 0 -71 0 0 90
0 90 -185 0 -185 0 0 -90 0 -90 -70 0 -70 0 0 244 c0 202 3 253 17 296 21 66
97 151 156 175 85 35 220 35 302 1z m774 0 c36 -11 69 -28 73 -36 7 -10 3 -31
-11 -62 l-20 -47 -43 19 c-137 60 -295 40 -313 -40 -14 -63 23 -90 178 -129
114 -28 168 -54 210 -100 83 -92 44 -237 -80 -298 -55 -26 -66 -28 -183 -28
-106 1 -134 4 -182 23 -31 13 -67 31 -80 41 l-22 19 24 51 c13 28 26 50 29 48
84 -47 132 -61 217 -65 71 -3 99 -1 126 12 66 32 71 102 10 138 -15 9 -74 28
-131 43 -177 45 -244 94 -257 186 -18 129 75 230 228 247 85 10 150 4 227 -22z"/>
<path d="M540 1178 c-67 -35 -90 -86 -90 -205 l0 -93 186 0 186 0 -4 103 c-3
83 -7 109 -25 137 -30 48 -74 72 -147 77 -50 4 -69 0 -106 -19z"/>
</g>
</svg>
